:SAMPLES-PER-SECOND 25
:FULLY-SPECIFIED
:DEGREES
222
root  2.79801 75.2508 -18.1042 -178.385 -10.0553 179.245
RightUpLeg  -18.5962 -0.61434 -2.05252
RightLeg  1.63869 -7.2332 -3.09048
RightFoot  8.54399 -0.177305 1.34565
RightToes  2.84633e-005 7.89722e-005 -0.000426369
Spine  2.16417 -1.7216 -0.834959
Spine1  4.33224 -3.39791 -2.35401
HEad  26.7137 -19.3513 -2.02616
LeftShoulder1  -3.88251e-019 0 -3.92111e-022
LeftArm  -31.6029 -1.61633 -82.8997
LeftForeArm  30.8674 2.15277 -0.341752
LeftHand  -0.847674 -5.35048 9.45768
RightShoulder  7.45443e-017 -2.42657e-020 1.96277e-018
RightArm  -27.3607 -15.0567 72.7462
RightForeArm  25.9785 6.84475 5.84807
RightHand  -1.48765 10.3624 -11.305
LeftUpLeg  1.7599 4.22946 -0.92727
LeftLeg  9.6136 -12.7599 -4.62774
LeftFoot  -8.04603 0.449404 -13.8988
LeftToes  3.91355e-005 3.11907e-005 -4.10385e-006
223
root  3.05671 75.2867 -18.8844 -177.942 -10.4816 179.234
RightUpLeg  -18.1632 -0.272405 -1.54563
RightLeg  2.12538 -7.13375 -3.20037
RightFoot  9.31368 0.122924 -0.34164
RightToes  2.84633e-005 7.89722e-005 -0.000426369
Spine  2.10542 -1.6814 -0.794915
Spine1  4.21075 -3.313 -2.29284
HEad  26.2285 -19.1684 -1.99034
LeftShoulder1  -3.88251e-019 0 -3.92111e-022
LeftArm  -32.1643 -0.84074 -83.0991
LeftForeArm  31.5281 2.08952 0.13726
LeftHand  -0.847933 -5.30044 9.50199
RightShoulder  7.45443e-017 -2.42657e-020 1.96277e-018
RightArm  -27.1449 -15.4146 72.4367
RightForeArm  26.2362 7.07125 6.05839
RightHand  -1.39159 10.0971 -10.769
LeftUpLeg  2.43426 4.10052 -0.385802
LeftLeg  9.58358 -13.445 -4.48279
LeftFoot  -7.85294 0.4193 -12.2172
LeftToes  3.91355e-005 3.11907e-005 -4.10385e-006
224
root  3.33357 75.3675 -19.721 -177.889 -10.1759 179.81
RightUpLeg  -17.3345 0.506817 -0.359026
RightLeg  2.73294 -7.49669 -3.15397
RightFoot  7.93971 0.330852 -1.62098
RightToes  2.84633e-005 7.89722e-005 -0.000426369
Spine  2.16543 -1.63743 -0.595566
Spine1  4.32241 -3.21938 -1.90591
HEad  25.8114 -18.4083 -1.81062
LeftShoulder1  -3.88251e-019 0 -3.92111e-022
LeftArm  -32.8401 0.450469 -83.0402
LeftForeArm  31.4515 2.02385 0.91964
LeftHand  -0.876427 -5.07777 10.0057
RightShoulder  7.45443e-017 -2.42657e-020 1.96277e-018
RightArm  -27.0515 -14.8493 72.2471
RightForeArm  26.8304 6.92813 6.06071
RightHand  -1.33981 10.2279 -10.3085
LeftUpLeg  3.59672 4.0918 0.714319
LeftLeg  9.42157 -13.5203 -4.09934
LeftFoot  -7.63416 0.379641 -10.2929
LeftToes  3.91355e-005 3.11907e-005 -4.10385e-006
225
root  3.65451 75.4521 -20.6358 -177.745 -9.6604 -179.394
RightUpLeg  -16.5161 1.41651 1.08405
RightLeg  3.27122 -7.93318 -2.94612
RightFoot  6.51665 0.42774 -2.43522
RightToes  2.84633e-005 7.89722e-005 -0.000426369
Spine  2.11007 -1.67876 -0.180415
Spine1  4.19842 -3.30711 -1.08818
HEad  25.8687 -17.456 -2.04332
LeftShoulder1  -3.88251e-019 0 -3.92111e-022
LeftArm  -33.6999 1.91258 -83.4015
LeftForeArm  31.4972 1.96417 1.78792
LeftHand  -0.792031 -5.27809 8.91794
RightShoulder  7.45443e-017 -2.42657e-020 1.96277e-018
RightArm  -26.7272 -13.9425 71.8733
RightForeArm  27.0345 7.09115 5.94512
RightHand  -1.37116 10.2425 -10.5316
LeftUpLeg  4.6811 4.50535 2.2746
LeftLeg  9.46112 -13.809 -3.85666
LeftFoot  -7.75307 0.357314 -9.90796
LeftToes  3.91355e-005 3.11907e-005 -4.10385e-006
226
root  4.00766 75.5079 -21.5565 -177.384 -9.20774 -178.782
RightUpLeg  -16.1168 2.22838 2.40874
RightLeg  4.30783 -8.33968 -2.83023
RightFoot  4.8832 0.542342 -3.56708
RightToes  2.84633e-005 7.89722e-005 -0.000426369
Spine  1.91085 -1.81553 0.0734525
Spine1  3.79327 -3.58065 -0.574109
HEad  26.3212 -16.7824 -1.97081
LeftShoulder1  -3.88251e-019 0 -3.92111e-022
LeftArm  -33.993 3.50603 -83.2973
LeftForeArm  32.0011 1.92896 2.26403
LeftHand  -0.713573 -5.13285 8.16933
RightShoulder  7.45443e-017 -2.42657e-020 1.96277e-018
RightArm  -26.8068 -13.4221 72.1338
RightForeArm  26.7147 7.673 6.18349
RightHand  -1.2805 10.1172 -9.93958
LeftUpLeg  5.30027 5.2842 3.93333
LeftLeg  10.0931 -14.7505 -4.00733
LeftFoot  -7.94664 0.351587 -10.2409
LeftToes  3.91355e-005 3.11907e-005 -4.10385e-006
227
root  4.37412 75.5476 -22.5111 -177.706 -8.97459 -178.34
RightUpLeg  -14.7008 2.96043 3.73604
RightLeg  5.05832 -8.76662 -2.95665
RightFoot  3.32202 0.665717 -4.98786
RightToes  2.84633e-005 7.89722e-005 -0.000426369
Spine  1.88009 -1.97742 0.283696
Spine1  3.71855 -3.88437 -0.273436
HEad  26.9233 -15.7129 -1.89504
LeftShoulder1  -3.88251e-019 0 -3.92111e-022
LeftArm  -34.2319 5.17743 -82.8437
LeftForeArm  33.0059 1.89228 2.58747
LeftHand  -0.659814 -4.92295 7.72147
RightShoulder  7.45443e-017 -2.42657e-020 1.96277e-018
RightArm  -26.3756 -13.4858 72.4637
RightForeArm  25.1048 8.60518 7.2449
RightHand  -1.52083 10.7063 -11.3173
LeftUpLeg  6.34067 6.67478 5.87851
LeftLeg  11.6447 -16.9288 -4.76107
LeftFoot  -7.87789 0.356788 -10.225
LeftToes  3.91355e-005 3.11907e-005 -4.10385e-006
228
root  4.71537 75.5105 -23.4592 -178.026 -8.19987 -178.119
RightUpLeg  -13.5958 3.63559 4.94136
RightLeg  6.46107 -8.63677 -3.21012
RightFoot  1.43079 0.659093 -5.79803
RightToes  2.84633e-005 7.89722e-005 -0.000426369
Spine  1.92005 -2.05231 0.53312
Spine1  3.77974 -4.00055 0.0633848
HEad  27.2374 -14.5988 -2.69763
LeftShoulder1  -3.88251e-019 0 -3.92111e-022
LeftArm  -35.0404 6.64182 -82.4846
LeftForeArm  33.6482 1.86601 2.90418
LeftHand  -0.646269 -4.91721 7.57289
RightShoulder  7.45443e-017 -2.42657e-020 1.96277e-018
RightArm  -25.2626 -13.0877 72.7998
RightForeArm  22.913 9.5617 7.51596
RightHand  -1.67922 11.1228 -12.1211
LeftUpLeg  6.90599 8.06101 7.3589
LeftLeg  14.5213 -18.7329 -5.67139
LeftFoot  -8.19849 0.327155 -10.1026
LeftToes  3.91355e-005 3.11907e-005 -4.10385e-006
229
root  4.98905 75.369 -24.3251 -178.21 -7.34707 -177.958
RightUpLeg  -13.2816 4.14289 5.75946
RightLeg  8.96515 -8.33129 -3.22845
RightFoot  -0.770482 0.579821 -6.30958
RightToes  2.84633e-005 7.89722e-005 -0.000426369
Spine  1.87986 -1.96521 0.845411
Spine1  3.66071 -3.74852 0.243062
HEad  28.2562 -13.5381 -3.57032
LeftShoulder1  -3.88251e-019 0 -3.92111e-022
LeftArm  -35.556 8.15977 -81.8212
LeftForeArm  32.9799 1.88823 2.78286
LeftHand  -0.66098 -4.96241 7.70719
RightShoulder  7.45443e-017 -2.42657e-020 1.96277e-018
RightArm  -24.3413 -13.1929 73.433
RightForeArm  22.2788 10.1727 7.91908
RightHand  -1.77304 11.2282 -12.7099
LeftUpLeg  5.3733 8.37598 8.14511
LeftLeg  21.1201 -18.5491 -7.45905
LeftFoot  -8.398 0.263476 -8.30141
LeftToes  3.91355e-005 3.11907e-005 -4.10385e-006
230
root  5.20288 75.1312 -25.0345 -178.567 -6.77057 -177.354
RightUpLeg  -13.3165 4.38506 6.68047
RightLeg  11.8856 -8.28223 -2.9489
RightFoot  -3.06346 0.433716 -6.27411
RightToes  2.84633e-005 7.89722e-005 -0.000426369
Spine  2.15708 -1.76947 1.62068
Spine1  4.14712 -3.23355 1.01521
HEad  28.4723 -11.2615 -4.86604
LeftShoulder1  -3.88251e-019 0 -3.92111e-022
LeftArm  -35.785 8.07259 -81.5882
LeftForeArm  30.5093 1.96183 2.40533
LeftHand  -0.688872 -4.99194 7.99684
RightShoulder  7.45443e-017 -2.42657e-020 1.96277e-018
RightArm  -23.5205 -12.7756 73.5306
RightForeArm  21.6133 10.7262 8.14205
RightHand  -1.76613 11.1936 -12.6905
LeftUpLeg  1.33661 6.95514 8.7033
LeftLeg  31.6053 -14.8612 -9.35282
LeftFoot  -7.28211 0.307195 -7.58188
LeftToes  3.91355e-005 3.11907e-005 -4.10385e-006
231
root  5.35374 74.8976 -25.6405 -179.481 -6.13096 -176.501
RightUpLeg  -12.6508 4.39937 7.91364
RightLeg  14.2864 -7.99202 -2.73886
RightFoot  -5.10949 0.275372 -5.6845
RightToes  2.84633e-005 7.89722e-005 -0.000426369
Spine  2.70197 -1.22885 2.56159
Spine1  5.1787 -2.01622 2.12854
HEad  28.4529 -10.7848 -6.32552
LeftShoulder1  -3.88251e-019 0 -3.92111e-022
LeftArm  -35.8568 6.82434 -81.9649
LeftForeArm  27.7826 2.03527 2.19256
LeftHand  -0.684162 -5.17265 7.8188
RightShoulder  7.45443e-017 -2.42657e-020 1.96277e-018
RightArm  -22.0236 -12.8639 73.0279
RightForeArm  20.4839 11.8215 8.14226
RightHand  -1.77305 11.2703 -12.6829
LeftUpLeg  -3.95406 5.85931 9.17398
LeftLeg  43.5177 -9.25376 -8.91015
LeftFoot  -3.74388 0.737534 -10.7472
LeftToes  3.91355e-005 3.11907e-005 -4.10385e-006
232
root  5.44123 74.742 -26.172 179.298 -5.70921 -175.862
RightUpLeg  -11.4345 4.15629 8.92236
RightLeg  16.1637 -7.81809 -2.73412
RightFoot  -6.8318 0.168 -5.43246
RightToes  2.84633e-005 7.89722e-005 -0.000426369
Spine  3.50836 -0.604275 3.53676
Spine1  6.776 -0.670597 3.413
HEad  27.9699 -10.867 -7.44573
LeftShoulder1  -3.88251e-019 0 -3.92111e-022
LeftArm  -35.7065 3.81496 -82.8914
LeftForeArm  26.3654 2.08276 1.80507
LeftHand  -0.682057 -5.56284 7.53752
RightShoulder  7.45443e-017 -2.42657e-020 1.96277e-018
RightArm  -21.5796 -12.5092 72.1427
RightForeArm  20.8623 12.3941 7.64401
RightHand  -1.51899 11.1497 -11.0143
LeftUpLeg  -9.36653 4.5731 8.69504
LeftLeg  53.3808 -2.84084 -3.65294
LeftFoot  -2.54771 0.983362 -12.3607
LeftToes  3.91355e-005 3.11907e-005 -4.10385e-006
233
root  5.47128 74.6748 -26.7019 178.032 -5.18132 -175.574
RightUpLeg  -9.67429 4.18662 9.61812
RightLeg  17.203 -7.74226 -2.91362
RightFoot  -7.96885 0.100516 -5.24191
RightToes  2.84633e-005 7.89722e-005 -0.000426369
Spine  4.24207 -0.0357919 4.29888
Spine1  8.27354 0.515842 4.3024
HEad  28.3585 -10.6756 -8.06604
LeftShoulder1  -3.88251e-019 0 -3.92111e-022
LeftArm  -35.0293 1.42654 -83.8444
LeftForeArm  26.3395 2.12907 1.07489
LeftHand  -0.747814 -5.49071 8.28255
RightShoulder  7.45443e-017 -2.42657e-020 1.96277e-018
RightArm  -22.1522 -11.7869 71.2391
RightForeArm  22.3296 11.6297 7.74788
RightHand  -1.4092 11.0168 -10.3279
LeftUpLeg  -13.6687 3.65965 7.56896
LeftLeg  58.8361 1.26467 2.77283
LeftFoot  -5.76881 0.242797 -4.31997
LeftToes  3.91355e-005 3.11907e-005 -4.10385e-006
234
root  5.45545 74.6484 -27.218 177.253 -4.33828 -175.339
RightUpLeg  -8.14088 4.27058 10.1416
RightLeg  17.6566 -7.29102 -2.86783
RightFoot  -8.85622 0.0515801 -5.12582
RightToes  2.84633e-005 7.89722e-005 -0.000426369
Spine  4.69964 0.707594 4.69621
Spine1  9.29221 1.86473 4.98581
HEad  29.0554 -10.98 -8.25638
LeftShoulder1  -3.88251e-019 0 -3.92111e-022
LeftArm  -33.5889 -0.418978 -84.687
LeftForeArm  27.822 2.18704 0.419575
LeftHand  -0.79844 -5.17084 9.08019
RightShoulder  7.45443e-017 -2.42657e-020 1.96277e-018
RightArm  -22.9014 -11.4119 70.6571
RightForeArm  22.7676 11.0256 7.70739
RightHand  -1.38001 10.7501 -10.2819
LeftUpLeg  -17.8734 2.79613 6.35494
LeftLeg  59.93 3.88524 7.77292
LeftFoot  -7.5569 0.0270845 0.461255
LeftToes  3.91355e-005 3.11907e-005 -4.10385e-006
